<svg width="1440" height="620" viewBox="0 0 1440 620" fill="none" xmlns="http://www.w3.org/2000/svg">
<path opacity="0.2" fill-rule="evenodd" clip-rule="evenodd" d="M-62.8297 420.287C-39.9466 391.723 4.72733 348.877 64.415 313.108C124.105 277.337 198.838 248.628 281.831 248.385C307.794 248.308 327.841 253.153 343.53 261.529C359.22 269.906 370.52 281.798 379.009 295.766C393.611 319.792 399.918 350.009 405.985 379.072L405.988 379.087C406.965 383.769 407.936 388.421 408.935 393.012C412.539 409.584 416.499 425.371 422.386 438.991C428.271 452.607 436.069 464.025 447.33 471.888C469.836 487.604 506.401 489.257 569.815 465.231C665.253 429.073 718.237 374.556 763.127 328.369C777.867 313.202 791.734 298.934 805.945 286.509C834.687 261.379 864.826 243.817 906.388 241.78C947.923 239.743 1000.8 253.214 1075.02 289.976C1149.14 326.69 1198.06 326.353 1233.14 305.554C1268.27 284.725 1289.68 243.296 1308.56 197.397C1313.12 186.31 1317.53 174.962 1321.95 163.588C1335.81 127.941 1349.77 92.0345 1368.7 63.0688C1381.2 43.9509 1395.89 27.8211 1414.18 16.759C1432.47 5.69309 1454.35 -0.284951 1481.19 0.861151L1481.15 1.86024C1454.49 0.721982 1432.81 6.65731 1414.7 17.6146C1396.57 28.5757 1381.99 44.5789 1369.54 63.616C1350.67 92.4856 1336.76 128.25 1322.91 163.874C1318.48 175.266 1314.06 186.644 1309.48 197.777C1290.61 243.66 1269.1 285.396 1233.65 306.414C1198.15 327.463 1148.84 327.654 1074.58 290.872C1000.42 254.14 947.722 240.754 906.437 242.778C865.178 244.801 835.246 262.218 806.604 287.262C792.472 299.617 778.653 313.837 763.944 328.972L763.944 328.972C719.034 375.183 665.836 429.921 570.17 466.166C506.697 490.214 469.698 488.726 446.757 472.708C435.294 464.704 427.398 453.107 421.468 439.388C415.54 425.672 411.563 409.803 407.957 393.225C406.957 388.623 405.985 383.968 405.007 379.288L405 379.251C398.928 350.174 392.659 320.152 378.155 296.286C369.743 282.445 358.567 270.69 343.059 262.411C327.547 254.13 307.671 249.309 281.834 249.385C199.07 249.628 124.513 278.259 64.929 313.965C5.34311 349.673 -39.2405 392.441 -62.0493 420.913L-62.8297 420.287ZM61.3462 358.179C1.65852 393.948 -43.0154 436.794 -65.8985 465.358L-65.1181 465.984C-42.3094 437.512 2.2743 394.744 61.8602 359.036C121.444 323.33 196.001 294.699 278.765 294.456C304.602 294.38 324.478 299.201 339.99 307.482C355.498 315.761 366.674 327.516 375.086 341.356C389.59 365.223 395.859 395.245 401.931 424.322L401.938 424.358C402.916 429.039 403.888 433.694 404.889 438.296C408.494 454.874 412.471 470.743 418.399 484.458C424.329 498.178 432.226 509.775 443.688 517.779C466.629 533.797 503.628 535.285 567.101 511.237C662.768 474.992 715.965 420.254 760.875 374.043L760.875 374.043C775.584 358.908 789.403 344.688 803.535 332.333C832.178 307.289 862.11 289.872 903.368 287.849C944.653 285.825 997.347 299.211 1071.51 335.943C1145.77 372.725 1195.08 372.534 1230.58 351.485C1266.03 330.467 1287.54 288.731 1306.41 242.848C1310.99 231.715 1315.41 220.337 1319.84 208.945C1333.69 173.321 1347.6 137.556 1366.47 108.687C1378.92 89.6498 1393.5 73.6466 1411.63 62.6855C1429.74 51.7282 1451.42 45.7929 1478.08 46.9311L1478.12 45.9321C1451.28 44.7859 1429.41 50.764 1411.11 61.8299C1392.82 72.892 1378.13 89.0218 1365.64 108.14C1346.7 137.105 1332.74 173.012 1318.88 208.659C1314.46 220.033 1310.05 231.381 1305.49 242.468C1286.61 288.366 1265.2 329.796 1230.07 350.625C1194.99 371.424 1146.07 371.76 1071.95 335.047C997.73 298.285 944.854 284.814 903.319 286.85C861.757 288.888 831.618 306.45 802.877 331.58C788.666 344.005 774.798 358.273 760.058 373.44C715.168 419.627 662.184 474.144 566.747 510.302C503.332 534.328 466.767 532.674 444.261 516.959C433 509.096 425.202 497.678 419.317 484.062C413.43 470.442 409.47 454.654 405.866 438.083C404.868 433.497 403.898 428.849 402.922 424.172L402.919 424.159L402.916 424.143C396.849 395.08 390.542 364.863 375.94 340.837C367.451 326.869 356.152 314.977 340.461 306.6C324.773 298.224 304.725 293.379 278.763 293.456C195.769 293.699 121.036 322.408 61.3462 358.179ZM-68.9673 510.429C-46.0842 481.865 -1.41028 439.018 58.2774 403.249C117.967 367.479 192.7 338.77 275.694 338.527C301.656 338.45 321.704 343.295 337.392 351.671C353.083 360.047 364.382 371.94 372.871 385.908C387.473 409.934 393.781 440.151 399.847 469.214L399.85 469.23L399.854 469.244C400.83 473.921 401.799 478.568 402.797 483.154C406.401 499.725 410.361 515.513 416.248 529.133C422.134 542.749 429.932 554.167 441.192 562.03C463.699 577.745 500.264 579.399 563.678 555.373C659.115 519.215 712.1 464.698 756.989 418.511C771.73 403.344 785.597 389.076 799.808 376.651C828.549 351.521 858.688 333.959 900.25 331.921C941.785 329.885 994.661 343.355 1068.88 380.118C1143 416.831 1191.92 416.495 1227 395.696C1262.13 374.867 1283.54 333.437 1302.42 287.539C1306.98 276.451 1311.39 265.104 1315.81 253.73C1329.67 218.083 1343.63 182.176 1362.57 153.211C1375.07 134.093 1389.75 117.963 1408.04 106.901C1426.34 95.8349 1448.21 89.8569 1475.05 91.003L1475.01 92.002C1448.35 90.8638 1426.67 96.7991 1408.56 107.756C1390.44 118.717 1375.85 134.721 1363.4 153.758C1344.53 182.627 1330.62 218.392 1316.77 254.016L1316.77 254.016C1312.35 265.408 1307.92 276.786 1303.34 287.919C1284.47 333.802 1262.96 375.538 1227.51 396.556C1192.01 417.604 1142.7 417.795 1068.44 381.014C994.278 344.282 941.584 330.896 900.299 332.92C859.041 334.943 829.109 352.36 800.466 377.403C786.335 389.759 772.515 403.979 757.807 419.114L757.806 419.114C712.896 465.325 659.699 520.063 564.032 556.308C500.559 580.356 463.56 578.868 440.62 562.85C429.157 554.846 421.261 543.249 415.33 529.529C409.402 515.814 405.425 499.945 401.82 483.367C400.819 478.765 399.847 474.11 398.87 469.429L398.862 469.393C392.79 440.315 386.522 410.294 372.017 386.427C363.605 372.587 352.429 360.832 336.921 352.553C321.41 344.272 301.533 339.451 275.697 339.526C192.933 339.77 118.375 368.4 58.7914 404.107C-0.794492 439.815 -45.3782 482.583 -68.1869 511.054L-68.9673 510.429ZM-72.0361 555.5C-49.153 526.936 -4.47908 484.089 55.2086 448.32C114.899 412.55 189.632 383.841 272.625 383.597C298.587 383.521 318.635 388.366 334.323 396.741C350.014 405.118 361.313 417.011 369.803 430.979C384.405 455.005 390.712 485.221 396.778 514.285L396.781 514.299L396.784 514.311L396.787 514.327C397.762 519 398.732 523.643 399.728 528.225C403.332 544.796 407.292 560.583 413.18 574.203C419.065 587.819 426.863 599.238 438.123 607.101C460.63 622.816 497.195 624.469 560.609 600.444C656.046 564.286 709.031 509.769 753.921 463.581C768.661 448.415 782.528 434.147 796.739 421.722C825.48 396.591 855.619 379.03 897.181 376.992C938.716 374.956 991.592 388.426 1065.81 425.189C1139.94 461.902 1188.86 461.565 1223.93 440.767C1259.06 419.938 1280.47 378.508 1299.35 332.609C1303.91 321.522 1308.32 310.175 1312.74 298.801C1326.6 263.154 1340.56 227.247 1359.5 198.281C1372 179.164 1386.68 163.034 1404.97 151.972C1423.27 140.906 1445.14 134.928 1471.98 136.074L1471.94 137.073C1445.28 135.935 1423.61 141.87 1405.49 152.827C1387.37 163.788 1372.78 179.792 1360.34 198.829C1341.46 227.698 1327.56 263.463 1313.71 299.086C1309.28 310.479 1304.85 321.857 1300.27 332.99C1281.4 378.873 1259.89 420.609 1224.44 441.627C1188.94 462.675 1139.63 462.866 1065.37 426.085C991.209 389.353 938.516 375.967 897.23 377.991C855.972 380.014 826.04 397.431 797.397 422.474C783.266 434.83 769.446 449.05 754.738 464.184L754.737 464.185C709.828 510.396 656.63 565.134 560.963 601.379C497.49 625.427 460.491 623.939 437.551 607.921C426.088 599.917 418.192 588.32 412.262 574.6C406.333 560.885 402.356 545.016 398.751 528.438C397.75 523.836 396.778 519.181 395.801 514.5L395.793 514.464C389.722 485.386 383.453 455.364 368.948 431.498C360.536 417.657 349.361 405.903 333.852 397.624C318.341 389.343 298.464 384.522 272.628 384.597C189.864 384.84 115.307 413.471 55.7226 449.178C-3.8633 484.886 -48.447 527.654 -71.2557 556.125L-72.0361 555.5Z" fill="#F9D120"/>
</svg>
