<svg width="228" height="175" viewBox="0 0 228 175" fill="none" xmlns="http://www.w3.org/2000/svg">
<path style="mix-blend-mode:screen" opacity="0.35" d="M27.1813 54.3057C26.5921 54.8638 37.5394 67.1586 51.6463 81.7618C65.7531 96.3651 77.6568 107.747 78.246 107.189C78.8352 106.63 67.8452 94.3103 53.7811 79.7409C39.7169 65.1714 27.7705 53.7222 27.1813 54.3057Z" fill="url(#paint0_radial_91_756)"/>
<path style="mix-blend-mode:screen" opacity="0.35" d="M127.62 59.8527C127.62 60.2417 138.388 59.523 151.598 58.2461C164.808 56.9693 175.44 55.6164 175.44 55.2189C175.44 54.8215 164.663 55.5487 151.462 56.8255C138.26 58.1024 127.552 59.4553 127.62 59.8527Z" fill="url(#paint1_radial_91_756)"/>
<path style="mix-blend-mode:screen" d="M73.4641 138.162C73.4641 137.92 73.3914 137.683 73.2554 137.481C73.1193 137.28 72.9259 137.122 72.6997 137.03C72.4734 136.937 72.2245 136.913 71.9843 136.96C71.7441 137.007 71.5235 137.124 71.3503 137.295C71.1772 137.467 71.0592 137.685 71.0115 137.923C70.9637 138.161 70.9882 138.408 71.0819 138.632C71.1756 138.856 71.3343 139.047 71.538 139.182C71.7416 139.317 71.981 139.389 72.2259 139.389C72.5542 139.389 72.8692 139.259 73.1014 139.029C73.3336 138.799 73.4641 138.488 73.4641 138.162Z" fill="url(#paint2_radial_91_756)"/>
<g style="mix-blend-mode:screen">
<path d="M131.036 119.526C131.036 119.25 130.953 118.98 130.798 118.751C130.643 118.521 130.423 118.342 130.166 118.237C129.908 118.131 129.625 118.103 129.352 118.157C129.079 118.211 128.827 118.344 128.63 118.539C128.433 118.734 128.299 118.983 128.245 119.253C128.19 119.524 128.218 119.805 128.325 120.06C128.432 120.315 128.612 120.532 128.844 120.686C129.076 120.839 129.348 120.921 129.627 120.921C130 120.921 130.359 120.774 130.623 120.512C130.887 120.251 131.036 119.896 131.036 119.526Z" fill="url(#paint3_radial_91_756)"/>
</g>
<g style="mix-blend-mode:screen">
<path d="M135.92 136.928C135.92 136.565 135.811 136.21 135.607 135.908C135.403 135.606 135.113 135.37 134.774 135.232C134.435 135.093 134.062 135.057 133.702 135.129C133.343 135.2 133.013 135.376 132.754 135.633C132.495 135.891 132.319 136.219 132.249 136.575C132.178 136.932 132.216 137.301 132.358 137.636C132.499 137.971 132.738 138.257 133.044 138.458C133.35 138.658 133.709 138.764 134.076 138.763C134.319 138.763 134.559 138.715 134.783 138.623C135.008 138.531 135.212 138.395 135.383 138.225C135.554 138.054 135.69 137.852 135.782 137.629C135.874 137.407 135.921 137.168 135.92 136.928Z" fill="url(#paint4_radial_91_756)"/>
</g>
<path style="mix-blend-mode:screen" d="M163.707 95.8747C163.708 95.6499 163.643 95.4297 163.518 95.2421C163.392 95.0544 163.214 94.9079 163.004 94.8211C162.795 94.7343 162.564 94.7111 162.341 94.7546C162.119 94.798 161.914 94.9061 161.753 95.0651C161.593 95.2241 161.484 95.4267 161.44 95.6473C161.396 95.8679 161.419 96.0964 161.507 96.3038C161.595 96.5112 161.743 96.6881 161.932 96.8119C162.122 96.9358 162.344 97.001 162.571 96.9994C162.872 96.9971 163.159 96.8779 163.372 96.6675C163.584 96.4571 163.705 96.1723 163.707 95.8747Z" fill="url(#paint5_radial_91_756)"/>
<path style="mix-blend-mode:screen" d="M217.658 166.084C218.115 166.084 218.486 166.451 218.486 166.904C218.486 167.357 218.115 167.724 217.658 167.724C217.2 167.724 216.829 167.357 216.829 166.904C216.829 166.451 217.2 166.084 217.658 166.084Z" fill="url(#paint6_radial_91_756)"/>
<path style="mix-blend-mode:screen" d="M205.472 36.8105C205.472 36.4309 205.359 36.0598 205.146 35.7441C204.933 35.4284 204.63 35.1824 204.276 35.0371C203.921 34.8918 203.532 34.8538 203.156 34.9279C202.78 35.002 202.434 35.1848 202.163 35.4532C201.892 35.7217 201.707 36.0637 201.633 36.436C201.558 36.8084 201.596 37.1943 201.743 37.5451C201.89 37.8958 202.138 38.1956 202.457 38.4065C202.776 38.6174 203.15 38.73 203.534 38.73C204.048 38.73 204.541 38.5277 204.905 38.1678C205.268 37.8078 205.472 37.3196 205.472 36.8105Z" fill="url(#paint7_radial_91_756)"/>
<path style="mix-blend-mode:screen" d="M121.583 56.4536C122.276 56.4536 122.838 57.0101 122.838 57.6966C122.838 58.3831 122.276 58.9396 121.583 58.9396C120.889 58.9396 120.327 58.3831 120.327 57.6966C120.327 57.0101 120.889 56.4536 121.583 56.4536Z" fill="url(#paint8_radial_91_756)"/>
<g style="mix-blend-mode:overlay" opacity="0.53">
<path d="M183.595 174.396L184.833 163.479L192.177 170.202L183.595 174.396Z" stroke="white" stroke-width="0.5" stroke-miterlimit="10"/>
</g>
<g style="mix-blend-mode:overlay" opacity="0.74">
<path d="M182.801 99.4262L209.836 100.339L207.991 126.569L182.801 99.4262Z" stroke="white" stroke-width="0.48" stroke-miterlimit="10"/>
</g>
<g style="mix-blend-mode:overlay">
<path d="M19.3765 46.3065L83.9929 112.617L1 115.196L62.7388 153.205L83.9929 112.617" stroke="white" stroke-width="0.5" stroke-miterlimit="10"/>
</g>
<g style="mix-blend-mode:overlay" opacity="0.36">
<path d="M159.668 157.552L184.38 155.531L179.863 132.209L159.668 157.552Z" stroke="white" stroke-width="0.5" stroke-miterlimit="10"/>
</g>
<g style="mix-blend-mode:overlay" opacity="0.76">
<path d="M211.159 168.79L226.675 142.627L203.534 140.792L170.086 111.053L179.863 132.21L203.534 140.792L184.38 155.531L211.159 168.79ZM211.159 168.79L203.534 140.792" stroke="white" stroke-width="0.5" stroke-miterlimit="10"/>
</g>
<g style="mix-blend-mode:overlay">
<path d="M59.8781 10.014L150.915 1.00007L105.956 60.7153L128.482 148.732L83.6599 112.617L105.956 60.7153L19.0434 46.3065L59.8781 10.014ZM59.8781 10.014L105.956 60.7153L170.086 111.053L128.482 148.732L62.4143 153.205" stroke="white" stroke-width="0.5" stroke-miterlimit="10"/>
</g>
<g style="mix-blend-mode:overlay" opacity="0.48">
<path d="M150.915 1.00003C150.915 1.00003 192.1 50.433 189.956 52.8767C187.813 55.3204 105.964 60.7322 105.964 60.7322" stroke="white" stroke-width="0.5" stroke-miterlimit="10"/>
</g>
<path style="mix-blend-mode:overlay" d="M128.815 148.233C129.951 148.479 179.863 132.167 179.863 132.167L170.086 111.028L128.815 148.233Z" fill="url(#paint9_linear_91_756)"/>
<path style="mix-blend-mode:overlay" d="M162.571 163.479C163.621 165.864 172.024 171.597 172.024 171.597L174.133 163.479H162.571Z" fill="url(#paint10_linear_91_756)"/>
<g style="mix-blend-mode:screen">
<path d="M83.6599 104.533C88.1685 104.533 91.8234 108.153 91.8234 112.617C91.8234 117.082 88.1685 120.701 83.6599 120.701C79.1513 120.701 75.4964 117.082 75.4964 112.617C75.4964 108.153 79.1513 104.533 83.6599 104.533Z" fill="url(#paint11_radial_91_756)"/>
</g>
<g style="mix-blend-mode:screen">
<path d="M136.545 142.572C139.515 146.804 138.459 152.618 134.186 155.56C129.913 158.501 124.04 157.455 121.07 153.224C118.1 148.992 119.156 143.178 123.429 140.236C127.702 137.295 133.574 138.34 136.545 142.572Z" fill="url(#paint12_radial_91_756)"/>
</g>
<g style="mix-blend-mode:screen">
<path d="M62.4143 145.037C66.97 145.037 70.6632 148.694 70.6632 153.205C70.6632 157.717 66.97 161.374 62.4143 161.374C57.8585 161.374 54.1654 157.717 54.1654 153.205C54.1654 148.694 57.8585 145.037 62.4143 145.037Z" fill="url(#paint13_radial_91_756)"/>
</g>
<g style="mix-blend-mode:screen">
<path d="M170.086 99.4262C176.566 99.4262 181.819 104.628 181.819 111.045C181.819 117.461 176.566 122.663 170.086 122.663C163.606 122.663 158.353 117.461 158.353 111.045C158.353 104.628 163.606 99.4262 170.086 99.4262Z" fill="url(#paint14_radial_91_756)"/>
</g>
<g style="mix-blend-mode:screen">
<path d="M69.6043 118.029C70.2127 118.029 70.7059 118.517 70.7059 119.12C70.7059 119.722 70.2127 120.211 69.6043 120.211C68.9959 120.211 68.5027 119.722 68.5027 119.12C68.5027 118.517 68.9959 118.029 69.6043 118.029Z" fill="url(#paint15_radial_91_756)"/>
</g>
<g style="mix-blend-mode:screen">
<path d="M65.2237 137.9C66.4782 137.9 67.4951 138.907 67.4951 140.15C67.4951 141.392 66.4782 142.399 65.2237 142.399C63.9692 142.399 62.9522 141.392 62.9522 140.15C62.9522 138.907 63.9692 137.9 65.2237 137.9Z" fill="url(#paint16_radial_91_756)"/>
</g>
<g style="mix-blend-mode:screen">
<path d="M83.0878 94.6147C84.0829 94.6147 84.8896 95.4135 84.8896 96.3989C84.8896 97.3843 84.0829 98.1831 83.0878 98.1831C82.0927 98.1831 81.286 97.3843 81.286 96.3989C81.286 95.4135 82.0927 94.6147 83.0878 94.6147Z" fill="url(#paint17_radial_91_756)"/>
</g>
<g style="mix-blend-mode:screen">
<path d="M107.835 105.717C108.872 105.717 109.713 106.55 109.713 107.578C109.713 108.605 108.872 109.438 107.835 109.438C106.797 109.438 105.956 108.605 105.956 107.578C105.956 106.55 106.797 105.717 107.835 105.717Z" fill="url(#paint18_radial_91_756)"/>
</g>
<g style="mix-blend-mode:screen">
<path d="M136.748 100.339C139.418 100.339 141.582 102.482 141.582 105.125C141.582 107.769 139.418 109.911 136.748 109.911C134.079 109.911 131.915 107.769 131.915 105.125C131.915 102.482 134.079 100.339 136.748 100.339Z" fill="url(#paint19_radial_91_756)"/>
</g>
<path style="mix-blend-mode:screen" d="M64.1477 45.1903C64.1477 44.3541 63.8973 43.5367 63.4282 42.8414C62.959 42.1461 62.2922 41.6042 61.512 41.2842C60.7319 40.9642 59.8734 40.8805 59.0452 41.0436C58.2169 41.2067 57.4562 41.6094 56.859 42.2007C56.2619 42.792 55.8553 43.5453 55.6905 44.3655C55.5258 45.1856 55.6103 46.0357 55.9335 46.8082C56.2567 47.5808 56.8039 48.2411 57.506 48.7057C58.2082 49.1702 59.0337 49.4182 59.8781 49.4182C61.0105 49.4182 62.0965 48.9728 62.8972 48.1799C63.6979 47.387 64.1477 46.3116 64.1477 45.1903Z" fill="url(#paint20_radial_91_756)"/>
<path style="mix-blend-mode:screen" d="M113.189 135.008C113.189 134.615 113.071 134.231 112.85 133.904C112.63 133.578 112.317 133.323 111.95 133.172C111.583 133.022 111.18 132.983 110.79 133.059C110.401 133.136 110.044 133.325 109.763 133.603C109.482 133.881 109.291 134.235 109.214 134.621C109.136 135.006 109.176 135.406 109.328 135.769C109.48 136.132 109.737 136.442 110.067 136.661C110.397 136.879 110.785 136.995 111.182 136.995C111.714 136.995 112.225 136.786 112.601 136.413C112.977 136.041 113.189 135.535 113.189 135.008Z" fill="url(#paint21_radial_91_756)"/>
<path style="mix-blend-mode:screen" d="M158.788 125.284C158.797 124.376 158.532 123.486 158.029 122.727C157.526 121.967 156.806 121.373 155.961 121.02C155.116 120.667 154.184 120.57 153.283 120.742C152.383 120.914 151.554 121.347 150.903 121.986C150.251 122.625 149.806 123.442 149.624 124.332C149.442 125.222 149.531 126.146 149.88 126.986C150.229 127.826 150.822 128.544 151.584 129.05C152.346 129.555 153.243 129.825 154.16 129.825C155.38 129.825 156.551 129.348 157.418 128.498C158.284 127.647 158.777 126.492 158.788 125.284Z" fill="url(#paint22_radial_91_756)"/>
<path style="mix-blend-mode:screen" d="M203.286 167.377C203.286 166.541 203.036 165.724 202.567 165.029C202.098 164.333 201.431 163.791 200.651 163.471C199.87 163.151 199.012 163.068 198.184 163.231C197.355 163.394 196.595 163.797 195.998 164.388C195.4 164.979 194.994 165.732 194.829 166.553C194.664 167.373 194.749 168.223 195.072 168.995C195.395 169.768 195.942 170.428 196.645 170.893C197.347 171.357 198.172 171.605 199.017 171.605C200.149 171.605 201.235 171.16 202.036 170.367C202.836 169.574 203.286 168.499 203.286 167.377Z" fill="url(#paint23_radial_91_756)"/>
<path style="mix-blend-mode:screen" d="M110.584 163.412C110.586 162.493 110.312 161.595 109.798 160.83C109.284 160.066 108.553 159.469 107.696 159.117C106.84 158.764 105.897 158.671 104.987 158.849C104.077 159.027 103.241 159.469 102.584 160.118C101.928 160.766 101.48 161.594 101.299 162.494C101.117 163.395 101.21 164.329 101.564 165.178C101.919 166.026 102.52 166.752 103.291 167.262C104.062 167.773 104.969 168.045 105.896 168.045C107.138 168.045 108.329 167.557 109.208 166.689C110.087 165.82 110.582 164.641 110.584 163.412Z" fill="url(#paint24_radial_91_756)"/>
<path style="mix-blend-mode:screen" d="M201.57 106.495C201.572 105.837 201.376 105.194 201.008 104.646C200.64 104.098 200.116 103.671 199.502 103.418C198.889 103.166 198.213 103.099 197.561 103.227C196.91 103.355 196.311 103.672 195.841 104.137C195.371 104.602 195.051 105.195 194.922 105.841C194.793 106.486 194.86 107.155 195.115 107.762C195.37 108.37 195.802 108.889 196.355 109.253C196.908 109.618 197.558 109.812 198.222 109.81C199.11 109.808 199.96 109.458 200.587 108.837C201.214 108.215 201.568 107.374 201.57 106.495Z" fill="url(#paint25_radial_91_756)"/>
<path style="mix-blend-mode:screen" d="M219.442 61.2057C219.444 60.4795 219.228 59.7692 218.822 59.1645C218.416 58.5599 217.838 58.0882 217.161 57.8092C216.484 57.5301 215.738 57.4562 215.019 57.5969C214.299 57.7375 213.638 58.0864 213.119 58.5993C212.6 59.1122 212.246 59.7661 212.102 60.4782C211.959 61.1903 212.031 61.9286 212.312 62.5997C212.592 63.2707 213.067 63.8444 213.677 64.248C214.286 64.6516 215.003 64.8671 215.736 64.8671C216.718 64.8671 217.659 64.4816 218.354 63.7952C219.049 63.1088 219.44 62.1775 219.442 61.2057Z" fill="url(#paint26_radial_91_756)"/>
<defs>
<radialGradient id="paint0_radial_91_756" cx="0" cy="0" r="1" gradientUnits="userSpaceOnUse" gradientTransform="translate(25.6159 30.8381) rotate(-134.451) scale(32.2964 1.35674)">
<stop stop-color="white"/>
<stop offset="0.17" stop-color="#D6EBFE" stop-opacity="0.76"/>
<stop offset="0.32" stop-color="#B3DBFC" stop-opacity="0.55"/>
<stop offset="0.39" stop-color="#A5D4FC" stop-opacity="0.47"/>
<stop offset="0.49" stop-color="#8BB5FB" stop-opacity="0.35"/>
<stop offset="0.64" stop-color="#6C8DFA" stop-opacity="0.2"/>
<stop offset="0.78" stop-color="#5571F9" stop-opacity="0.09"/>
<stop offset="0.91" stop-color="#4760F8" stop-opacity="0.02"/>
<stop offset="1" stop-color="#425AF8" stop-opacity="0"/>
</radialGradient>
<radialGradient id="paint1_radial_91_756" cx="0" cy="0" r="1" gradientUnits="userSpaceOnUse" gradientTransform="translate(138.939 51.5318) rotate(173.721) scale(21.0913 0.545913)">
<stop stop-color="white"/>
<stop offset="0.17" stop-color="#D6EBFE" stop-opacity="0.76"/>
<stop offset="0.32" stop-color="#B3DBFC" stop-opacity="0.55"/>
<stop offset="0.39" stop-color="#A5D4FC" stop-opacity="0.47"/>
<stop offset="0.49" stop-color="#8BB5FB" stop-opacity="0.35"/>
<stop offset="0.64" stop-color="#6C8DFA" stop-opacity="0.2"/>
<stop offset="0.78" stop-color="#5571F9" stop-opacity="0.09"/>
<stop offset="0.91" stop-color="#4760F8" stop-opacity="0.02"/>
<stop offset="1" stop-color="#425AF8" stop-opacity="0"/>
</radialGradient>
<radialGradient id="paint2_radial_91_756" cx="0" cy="0" r="1" gradientUnits="userSpaceOnUse" gradientTransform="translate(72.2259 138.162) scale(1.23819 1.2261)">
<stop stop-color="#7BB7E9"/>
<stop offset="0.05" stop-color="#4667E2"/>
<stop offset="0.08" stop-color="#3D5AC6"/>
<stop offset="0.12" stop-color="#31479D"/>
<stop offset="0.16" stop-color="#253677"/>
<stop offset="0.22" stop-color="#1B2757"/>
<stop offset="0.27" stop-color="#121B3B"/>
<stop offset="0.34" stop-color="#0C1125"/>
<stop offset="0.41" stop-color="#060915"/>
<stop offset="0.51" stop-color="#030409"/>
<stop offset="0.64" stop-color="#010102"/>
<stop offset="1"/>
</radialGradient>
<radialGradient id="paint3_radial_91_756" cx="0" cy="0" r="1" gradientUnits="userSpaceOnUse" gradientTransform="translate(129.627 119.526) scale(1.40898 1.39522)">
<stop stop-color="#7BB7E9"/>
<stop offset="0.05" stop-color="#4667E2"/>
<stop offset="0.08" stop-color="#3D5AC6"/>
<stop offset="0.12" stop-color="#31479D"/>
<stop offset="0.16" stop-color="#253677"/>
<stop offset="0.22" stop-color="#1B2757"/>
<stop offset="0.27" stop-color="#121B3B"/>
<stop offset="0.34" stop-color="#0C1125"/>
<stop offset="0.41" stop-color="#060915"/>
<stop offset="0.51" stop-color="#030409"/>
<stop offset="0.64" stop-color="#010102"/>
<stop offset="1"/>
</radialGradient>
<radialGradient id="paint4_radial_91_756" cx="0" cy="0" r="1" gradientUnits="userSpaceOnUse" gradientTransform="translate(134.076 136.928) scale(1.85302 1.83492)">
<stop stop-color="#7BB7E9"/>
<stop offset="0.05" stop-color="#4667E2"/>
<stop offset="0.08" stop-color="#3D5AC6"/>
<stop offset="0.12" stop-color="#31479D"/>
<stop offset="0.16" stop-color="#253677"/>
<stop offset="0.22" stop-color="#1B2757"/>
<stop offset="0.27" stop-color="#121B3B"/>
<stop offset="0.34" stop-color="#0C1125"/>
<stop offset="0.41" stop-color="#060915"/>
<stop offset="0.51" stop-color="#030409"/>
<stop offset="0.64" stop-color="#010102"/>
<stop offset="1"/>
</radialGradient>
<radialGradient id="paint5_radial_91_756" cx="0" cy="0" r="1" gradientUnits="userSpaceOnUse" gradientTransform="translate(162.571 95.8747) scale(1.13572 1.12463)">
<stop stop-color="#7BB7E9"/>
<stop offset="0.05" stop-color="#4667E2"/>
<stop offset="0.08" stop-color="#3D5AC6"/>
<stop offset="0.12" stop-color="#31479D"/>
<stop offset="0.16" stop-color="#253677"/>
<stop offset="0.22" stop-color="#1B2757"/>
<stop offset="0.27" stop-color="#121B3B"/>
<stop offset="0.34" stop-color="#0C1125"/>
<stop offset="0.41" stop-color="#060915"/>
<stop offset="0.51" stop-color="#030409"/>
<stop offset="0.64" stop-color="#010102"/>
<stop offset="1"/>
</radialGradient>
<radialGradient id="paint6_radial_91_756" cx="0" cy="0" r="1" gradientUnits="userSpaceOnUse" gradientTransform="translate(217.658 166.904) scale(0.828308 0.820217)">
<stop stop-color="#7BB7E9"/>
<stop offset="0.05" stop-color="#4667E2"/>
<stop offset="0.08" stop-color="#3D5AC6"/>
<stop offset="0.12" stop-color="#31479D"/>
<stop offset="0.16" stop-color="#253677"/>
<stop offset="0.22" stop-color="#1B2757"/>
<stop offset="0.27" stop-color="#121B3B"/>
<stop offset="0.34" stop-color="#0C1125"/>
<stop offset="0.41" stop-color="#060915"/>
<stop offset="0.51" stop-color="#030409"/>
<stop offset="0.64" stop-color="#010102"/>
<stop offset="1"/>
</radialGradient>
<radialGradient id="paint7_radial_91_756" cx="0" cy="0" r="1" gradientUnits="userSpaceOnUse" gradientTransform="translate(203.534 36.8105) scale(1.93842 1.91948)">
<stop stop-color="#7BB7E9"/>
<stop offset="0.05" stop-color="#4667E2"/>
<stop offset="0.08" stop-color="#3D5AC6"/>
<stop offset="0.12" stop-color="#31479D"/>
<stop offset="0.16" stop-color="#253677"/>
<stop offset="0.22" stop-color="#1B2757"/>
<stop offset="0.27" stop-color="#121B3B"/>
<stop offset="0.34" stop-color="#0C1125"/>
<stop offset="0.41" stop-color="#060915"/>
<stop offset="0.51" stop-color="#030409"/>
<stop offset="0.64" stop-color="#010102"/>
<stop offset="1"/>
</radialGradient>
<radialGradient id="paint8_radial_91_756" cx="0" cy="0" r="1" gradientUnits="userSpaceOnUse" gradientTransform="translate(121.583 57.6966) scale(1.25526 1.24301)">
<stop stop-color="#7BB7E9"/>
<stop offset="0.05" stop-color="#4667E2"/>
<stop offset="0.08" stop-color="#3D5AC6"/>
<stop offset="0.12" stop-color="#31479D"/>
<stop offset="0.16" stop-color="#253677"/>
<stop offset="0.22" stop-color="#1B2757"/>
<stop offset="0.27" stop-color="#121B3B"/>
<stop offset="0.34" stop-color="#0C1125"/>
<stop offset="0.41" stop-color="#060915"/>
<stop offset="0.51" stop-color="#030409"/>
<stop offset="0.64" stop-color="#010102"/>
<stop offset="1"/>
</radialGradient>
<linearGradient id="paint9_linear_91_756" x1="156.73" y1="149.316" x2="148.85" y2="118.795" gradientUnits="userSpaceOnUse">
<stop stop-color="white"/>
<stop offset="1" stop-color="white" stop-opacity="0"/>
</linearGradient>
<linearGradient id="paint10_linear_91_756" x1="171.392" y1="175.03" x2="168.257" y2="162.906" gradientUnits="userSpaceOnUse">
<stop stop-color="white"/>
<stop offset="1" stop-color="white" stop-opacity="0"/>
</linearGradient>
<radialGradient id="paint11_radial_91_756" cx="0" cy="0" r="1" gradientUnits="userSpaceOnUse" gradientTransform="translate(83.6599 112.617) scale(8.16352 8.0838)">
<stop stop-color="#E9C3B4"/>
<stop offset="0.1" stop-color="#345CEC"/>
<stop offset="0.13" stop-color="#2C4DC6"/>
<stop offset="0.17" stop-color="#233D9D"/>
<stop offset="0.22" stop-color="#1A2E77"/>
<stop offset="0.27" stop-color="#132257"/>
<stop offset="0.32" stop-color="#0D173B"/>
<stop offset="0.38" stop-color="#080F25"/>
<stop offset="0.45" stop-color="#050814"/>
<stop offset="0.54" stop-color="#020309"/>
<stop offset="0.66" stop-color="#000102"/>
<stop offset="1"/>
</radialGradient>
<radialGradient id="paint12_radial_91_756" cx="0" cy="0" r="1" gradientUnits="userSpaceOnUse" gradientTransform="translate(128.898 148.793) scale(9.41039 9.31849)">
<stop stop-color="#E9C3B4"/>
<stop offset="0.1" stop-color="#345CEC"/>
<stop offset="0.13" stop-color="#2C4DC6"/>
<stop offset="0.17" stop-color="#233D9D"/>
<stop offset="0.22" stop-color="#1A2E77"/>
<stop offset="0.27" stop-color="#132257"/>
<stop offset="0.32" stop-color="#0D173B"/>
<stop offset="0.38" stop-color="#080F25"/>
<stop offset="0.45" stop-color="#050814"/>
<stop offset="0.54" stop-color="#020309"/>
<stop offset="0.66" stop-color="#000102"/>
<stop offset="1"/>
</radialGradient>
<radialGradient id="paint13_radial_91_756" cx="0" cy="0" r="1" gradientUnits="userSpaceOnUse" gradientTransform="translate(62.4143 153.205) scale(8.24891 8.16836)">
<stop stop-color="#E9C3B4"/>
<stop offset="0.1" stop-color="#345CEC"/>
<stop offset="0.13" stop-color="#2C4DC6"/>
<stop offset="0.17" stop-color="#233D9D"/>
<stop offset="0.22" stop-color="#1A2E77"/>
<stop offset="0.27" stop-color="#132257"/>
<stop offset="0.32" stop-color="#0D173B"/>
<stop offset="0.38" stop-color="#080F25"/>
<stop offset="0.45" stop-color="#050814"/>
<stop offset="0.54" stop-color="#020309"/>
<stop offset="0.66" stop-color="#000102"/>
<stop offset="1"/>
</radialGradient>
<radialGradient id="paint14_radial_91_756" cx="0" cy="0" r="1" gradientUnits="userSpaceOnUse" gradientTransform="translate(170.086 111.045) scale(11.7329 11.6183)">
<stop stop-color="#E9C3B4"/>
<stop offset="0.1" stop-color="#345CEC"/>
<stop offset="0.13" stop-color="#2C4DC6"/>
<stop offset="0.17" stop-color="#233D9D"/>
<stop offset="0.22" stop-color="#1A2E77"/>
<stop offset="0.27" stop-color="#132257"/>
<stop offset="0.32" stop-color="#0D173B"/>
<stop offset="0.38" stop-color="#080F25"/>
<stop offset="0.45" stop-color="#050814"/>
<stop offset="0.54" stop-color="#020309"/>
<stop offset="0.66" stop-color="#000102"/>
<stop offset="1"/>
</radialGradient>
<radialGradient id="paint15_radial_91_756" cx="0" cy="0" r="1" gradientUnits="userSpaceOnUse" gradientTransform="translate(69.6043 119.12) scale(1.10156 1.0908)">
<stop stop-color="#CD5988"/>
<stop offset="0.05" stop-color="#C43538"/>
<stop offset="0.1" stop-color="#9B2A2C"/>
<stop offset="0.14" stop-color="#772022"/>
<stop offset="0.2" stop-color="#571718"/>
<stop offset="0.25" stop-color="#3B1011"/>
<stop offset="0.32" stop-color="#250A0B"/>
<stop offset="0.4" stop-color="#140506"/>
<stop offset="0.49" stop-color="#090202"/>
<stop offset="0.63" stop-color="#020101"/>
<stop offset="1"/>
</radialGradient>
<radialGradient id="paint16_radial_91_756" cx="0" cy="0" r="1" gradientUnits="userSpaceOnUse" gradientTransform="translate(65.2237 140.15) scale(2.27144 2.24926)">
<stop stop-color="#CD5988"/>
<stop offset="0.05" stop-color="#C43538"/>
<stop offset="0.1" stop-color="#9B2A2C"/>
<stop offset="0.14" stop-color="#772022"/>
<stop offset="0.2" stop-color="#571718"/>
<stop offset="0.25" stop-color="#3B1011"/>
<stop offset="0.32" stop-color="#250A0B"/>
<stop offset="0.4" stop-color="#140506"/>
<stop offset="0.49" stop-color="#090202"/>
<stop offset="0.63" stop-color="#020101"/>
<stop offset="1"/>
</radialGradient>
<radialGradient id="paint17_radial_91_756" cx="0" cy="0" r="1" gradientUnits="userSpaceOnUse" gradientTransform="translate(83.0878 96.3989) scale(1.80179 1.78419)">
<stop stop-color="#CD5988"/>
<stop offset="0.05" stop-color="#C43538"/>
<stop offset="0.1" stop-color="#9B2A2C"/>
<stop offset="0.14" stop-color="#772022"/>
<stop offset="0.2" stop-color="#571718"/>
<stop offset="0.25" stop-color="#3B1011"/>
<stop offset="0.32" stop-color="#250A0B"/>
<stop offset="0.4" stop-color="#140506"/>
<stop offset="0.49" stop-color="#090202"/>
<stop offset="0.63" stop-color="#020101"/>
<stop offset="1"/>
</radialGradient>
<radialGradient id="paint18_radial_91_756" cx="0" cy="0" r="1" gradientUnits="userSpaceOnUse" gradientTransform="translate(107.835 107.578) scale(1.87863 1.86029)">
<stop stop-color="#CD5988"/>
<stop offset="0.05" stop-color="#C43538"/>
<stop offset="0.1" stop-color="#9B2A2C"/>
<stop offset="0.14" stop-color="#772022"/>
<stop offset="0.2" stop-color="#571718"/>
<stop offset="0.25" stop-color="#3B1011"/>
<stop offset="0.32" stop-color="#250A0B"/>
<stop offset="0.4" stop-color="#140506"/>
<stop offset="0.49" stop-color="#090202"/>
<stop offset="0.63" stop-color="#020101"/>
<stop offset="1"/>
</radialGradient>
<radialGradient id="paint19_radial_91_756" cx="0" cy="0" r="1" gradientUnits="userSpaceOnUse" gradientTransform="translate(136.748 105.125) scale(4.83322 4.78601)">
<stop stop-color="#CD5988"/>
<stop offset="0.05" stop-color="#C43538"/>
<stop offset="0.1" stop-color="#9B2A2C"/>
<stop offset="0.14" stop-color="#772022"/>
<stop offset="0.2" stop-color="#571718"/>
<stop offset="0.25" stop-color="#3B1011"/>
<stop offset="0.32" stop-color="#250A0B"/>
<stop offset="0.4" stop-color="#140506"/>
<stop offset="0.49" stop-color="#090202"/>
<stop offset="0.63" stop-color="#020101"/>
<stop offset="1"/>
</radialGradient>
<radialGradient id="paint20_radial_91_756" cx="0" cy="0" r="1" gradientUnits="userSpaceOnUse" gradientTransform="translate(59.8781 45.1903) scale(4.26962 4.22793)">
<stop stop-color="#CD5988"/>
<stop offset="0.05" stop-color="#C43538"/>
<stop offset="0.1" stop-color="#9B2A2C"/>
<stop offset="0.14" stop-color="#772022"/>
<stop offset="0.2" stop-color="#571718"/>
<stop offset="0.25" stop-color="#3B1011"/>
<stop offset="0.32" stop-color="#250A0B"/>
<stop offset="0.4" stop-color="#140506"/>
<stop offset="0.49" stop-color="#090202"/>
<stop offset="0.63" stop-color="#020101"/>
<stop offset="1"/>
</radialGradient>
<radialGradient id="paint21_radial_91_756" cx="0" cy="0" r="1" gradientUnits="userSpaceOnUse" gradientTransform="translate(111.182 135.008) scale(2.00672 1.98713)">
<stop stop-color="#CD5988"/>
<stop offset="0.05" stop-color="#C43538"/>
<stop offset="0.1" stop-color="#9B2A2C"/>
<stop offset="0.14" stop-color="#772022"/>
<stop offset="0.2" stop-color="#571718"/>
<stop offset="0.25" stop-color="#3B1011"/>
<stop offset="0.32" stop-color="#250A0B"/>
<stop offset="0.4" stop-color="#140506"/>
<stop offset="0.49" stop-color="#090202"/>
<stop offset="0.63" stop-color="#020101"/>
<stop offset="1"/>
</radialGradient>
<radialGradient id="paint22_radial_91_756" cx="0" cy="0" r="1" gradientUnits="userSpaceOnUse" gradientTransform="translate(154.16 125.284) scale(4.62827 4.58307)">
<stop stop-color="#CD5988"/>
<stop offset="0.05" stop-color="#C43538"/>
<stop offset="0.1" stop-color="#9B2A2C"/>
<stop offset="0.14" stop-color="#772022"/>
<stop offset="0.2" stop-color="#571718"/>
<stop offset="0.25" stop-color="#3B1011"/>
<stop offset="0.32" stop-color="#250A0B"/>
<stop offset="0.4" stop-color="#140506"/>
<stop offset="0.49" stop-color="#090202"/>
<stop offset="0.63" stop-color="#020101"/>
<stop offset="1"/>
</radialGradient>
<radialGradient id="paint23_radial_91_756" cx="0" cy="0" r="1" gradientUnits="userSpaceOnUse" gradientTransform="translate(199.025 167.377) scale(4.26107 4.21947)">
<stop stop-color="#CD5988"/>
<stop offset="0.05" stop-color="#C43538"/>
<stop offset="0.1" stop-color="#9B2A2C"/>
<stop offset="0.14" stop-color="#772022"/>
<stop offset="0.2" stop-color="#571718"/>
<stop offset="0.25" stop-color="#3B1011"/>
<stop offset="0.32" stop-color="#250A0B"/>
<stop offset="0.4" stop-color="#140506"/>
<stop offset="0.49" stop-color="#090202"/>
<stop offset="0.63" stop-color="#020101"/>
<stop offset="1"/>
</radialGradient>
<radialGradient id="paint24_radial_91_756" cx="0" cy="0" r="1" gradientUnits="userSpaceOnUse" gradientTransform="translate(105.896 163.412) scale(4.67951 4.63381)">
<stop stop-color="#CD5988"/>
<stop offset="0.05" stop-color="#C43538"/>
<stop offset="0.1" stop-color="#9B2A2C"/>
<stop offset="0.14" stop-color="#772022"/>
<stop offset="0.2" stop-color="#571718"/>
<stop offset="0.25" stop-color="#3B1011"/>
<stop offset="0.32" stop-color="#250A0B"/>
<stop offset="0.4" stop-color="#140506"/>
<stop offset="0.49" stop-color="#090202"/>
<stop offset="0.63" stop-color="#020101"/>
<stop offset="1"/>
</radialGradient>
<radialGradient id="paint25_radial_91_756" cx="0" cy="0" r="1" gradientUnits="userSpaceOnUse" gradientTransform="translate(198.222 106.495) scale(3.35593 3.32315)">
<stop stop-color="#CD5988"/>
<stop offset="0.05" stop-color="#C43538"/>
<stop offset="0.1" stop-color="#9B2A2C"/>
<stop offset="0.14" stop-color="#772022"/>
<stop offset="0.2" stop-color="#571718"/>
<stop offset="0.25" stop-color="#3B1011"/>
<stop offset="0.32" stop-color="#250A0B"/>
<stop offset="0.4" stop-color="#140506"/>
<stop offset="0.49" stop-color="#090202"/>
<stop offset="0.63" stop-color="#020101"/>
<stop offset="1"/>
</radialGradient>
<radialGradient id="paint26_radial_91_756" cx="0" cy="0" r="1" gradientUnits="userSpaceOnUse" gradientTransform="translate(215.736 61.2057) scale(3.70603 3.66984)">
<stop stop-color="#CD5988"/>
<stop offset="0.05" stop-color="#C43538"/>
<stop offset="0.1" stop-color="#9B2A2C"/>
<stop offset="0.14" stop-color="#772022"/>
<stop offset="0.2" stop-color="#571718"/>
<stop offset="0.25" stop-color="#3B1011"/>
<stop offset="0.32" stop-color="#250A0B"/>
<stop offset="0.4" stop-color="#140506"/>
<stop offset="0.49" stop-color="#090202"/>
<stop offset="0.63" stop-color="#020101"/>
<stop offset="1"/>
</radialGradient>
</defs>
</svg>
