<svg width="100" height="100" viewBox="0 0 100 100" fill="none" xmlns="http://www.w3.org/2000/svg">
<circle cx="50" cy="50" r="49.2308" fill="white" stroke="#F65548" stroke-width="1.53846"/>
<path d="M81.1929 57.5029C80.8441 56.3421 80.3671 55.2239 79.7707 54.1687C80.0227 52.5879 80.1513 50.9899 80.1554 49.3891C80.1554 41.3905 76.978 33.7196 71.3222 28.0637C65.6663 22.4079 57.9954 19.2305 49.9968 19.2305C41.9982 19.2305 34.3273 22.4079 28.6714 28.0637C23.0156 33.7196 19.8382 41.3905 19.8382 49.3891C19.8437 51.0371 19.9802 52.6822 20.2462 54.3086C19.6526 55.3462 19.1719 56.4444 18.8123 57.5845C18.1012 59.4963 18.5558 68.7409 19.4302 70C21.0156 72.3315 25.3523 74.1152 28.1152 74.4649C28.2898 74.6586 28.5071 74.809 28.7499 74.9041C28.9928 74.9992 29.2544 75.0364 29.5141 75.0128C29.9453 74.98 30.3459 74.7775 30.6278 74.4496C30.9098 74.1217 31.0501 73.6954 31.018 73.2641L29.5025 56.6285C29.461 56.3188 29.3334 56.027 29.1341 55.7863C28.9348 55.5456 28.6719 55.3658 28.3753 55.2674C28.0788 55.1689 27.7605 55.1558 27.4569 55.2295C27.1532 55.3032 26.8764 55.4608 26.658 55.6843H26.215C25.6246 55.5536 25.0697 55.2961 24.5886 54.9298C24.1075 54.5634 23.7118 54.0969 23.4288 53.5625C23.214 52.1974 23.1049 50.8177 23.1024 49.4357C23.1024 34.3622 35.1448 23.9985 49.9968 23.9985C64.8488 23.9985 76.8912 34.3622 76.8912 49.4357C76.8887 50.8293 76.7795 52.2206 76.5648 53.5975C76.2729 54.1029 75.8783 54.5414 75.4064 54.8848C74.9345 55.2281 74.3959 55.4687 73.8252 55.591H73.3939C73.1054 55.3113 72.7323 55.135 72.333 55.0897C72.1134 55.0553 71.8891 55.0658 71.6736 55.1205C71.4581 55.1753 71.256 55.2732 71.0794 55.4084C70.9029 55.5435 70.7556 55.713 70.6465 55.9067C70.5373 56.1004 70.4686 56.3143 70.4445 56.5353L68.929 73.1709C68.9164 73.5143 69.0102 73.8531 69.1976 74.1411C69.385 74.4291 69.6568 74.6522 69.9758 74.7798C70.2948 74.9074 70.6455 74.9333 70.9798 74.854C71.3141 74.7747 71.6157 74.594 71.8434 74.3367C74.5947 73.9869 78.943 72.1916 80.5285 69.8834C81.4378 68.6593 81.9041 59.4147 81.1929 57.5029Z" fill="#F65548"/>
<path d="M79.7003 63.6232C77.8933 62.2243 77.2988 63.6232 77.2988 63.6232C76.3429 65.3486 70.7705 73.1243 58.7047 76.5866C58.1238 76.0526 57.4418 75.6402 56.699 75.3739C55.9562 75.1076 55.1676 74.9928 54.3797 75.0362C51.6751 75.0362 49.4834 76.3302 49.4834 77.9389C49.4834 79.5477 51.6751 80.8417 54.3797 80.8417C57.0843 80.8417 59.2642 79.5477 59.2759 77.9506C63.4494 76.7032 74.0113 72.7862 79.7003 63.6232Z" fill="#FFD6D2"/>
<path d="M34.6221 38.1394C36.8187 37.7822 39.0415 37.6106 41.267 37.6265C44.5195 37.6265 45.9301 39.958 45.9301 42.4411C45.9301 46.2882 40.754 50.3334 39.2502 51.4642H45.9301V53.7958H34.7853V51.5458C36.9536 50.077 43.3421 45.3206 43.3421 42.3945C43.3421 40.8907 42.5727 39.9814 40.6375 39.9814H34.6221V38.1394Z" fill="#8F9091"/>
<path d="M52.038 37.8481H54.8825L49.4616 47.664H54.2413V43.7003L54.9757 42.0449H56.806V47.664H58.543V49.6458L56.806 50.1354V53.7959H54.2763V50.1354H46.6055L45.8594 48.9696L52.038 37.8481Z" fill="#8F9091"/>
<path d="M61.1182 37.8135H62.7736V42.2201C63.4961 41.6274 64.3928 41.2876 65.3266 41.2525C67.0053 41.2525 67.6582 42.4183 67.6582 43.8405V48.9699H66.0144V43.8522C66.0144 43.0245 65.6064 42.6864 65.0119 42.6864C64.2234 42.6788 63.454 42.9285 62.8202 43.3975V48.9933H61.1182V37.8135Z" fill="#8F9091"/>
</svg>
